<?xml version="1.0" standalone="no"?>
<!DOCTYPE svg PUBLIC "-//W3C//DTD SVG 20010904//EN"
 "http://www.w3.org/TR/2001/REC-SVG-20010904/DTD/svg10.dtd">
<svg version="1.0" xmlns="http://www.w3.org/2000/svg"
 width="1024.000000pt" height="1024.000000pt" viewBox="0 0 1024.000000 1024.000000"
 preserveAspectRatio="xMidYMid meet">

<g transform="translate(0.000000,1024.000000) scale(0.100000,-0.100000)"
fill="#000000" stroke="none">
<path d="M7873 7761 c235 -245 354 -460 420 -761 20 -93 21 -123 26 -1618 l6
-1523 648 870 647 870 0 433 -1 433 -362 275 c-199 151 -524 398 -722 549
-198 151 -452 344 -565 429 l-205 156 108 -113z"/>
<path d="M625 1815 c6 -282 48 -455 166 -685 78 -150 162 -261 296 -390 210
-203 444 -326 743 -392 l105 -23 3185 0 3185 0 105 23 c316 70 541 192 765
417 179 179 288 349 363 570 56 162 73 270 77 480 3 140 2 173 -5 125 -33
-240 -114 -455 -248 -660 -76 -115 -288 -327 -406 -404 -165 -109 -344 -183
-546 -228 l-105 -23 -3185 0 -3185 0 -105 23 c-299 66 -533 189 -743 392 -131
126 -217 239 -291 380 -87 168 -140 333 -166 520 -7 48 -8 15 -5 -125z"/>
<path d="M3270 1937 c14 -8 313 -149 665 -312 352 -163 759 -352 905 -420 675
-314 1096 -506 1112 -508 12 -1 154 182 477 615 l460 618 -1797 3 c-988 1
-1808 6 -1822 10 l-25 8 25 -14z"/>
</g>
</svg>
